<?xml version="1.0" encoding="UTF-8" standalone="no"?>
<!DOCTYPE svg PUBLIC "-//W3C//DTD SVG 1.1//EN"
 "http://www.w3.org/Graphics/SVG/1.1/DTD/svg11.dtd">
<!-- Generated by graphviz version 14.1.3 (20260303.0454)
 -->
<!-- Pages: 1 -->
<svg width="481pt" height="188pt"
 viewBox="0.00 0.00 481.00 188.00" xmlns="http://www.w3.org/2000/svg" xmlns:xlink="http://www.w3.org/1999/xlink">
<g id="graph0" class="graph" transform="scale(1 1) rotate(0) translate(4 184)">
<polygon fill="white" stroke="none" points="-4,4 -4,-184 477.12,-184 477.12,4 -4,4"/>
<!-- ShadowClientFeatureHome -->
<g id="node1" class="node">
<title>ShadowClientFeatureHome</title>
<path fill="#ffb90f" stroke="black" d="M371.75,-32.73C371.75,-34.53 334.38,-36 288.38,-36 242.37,-36 205,-34.53 205,-32.73 205,-32.73 205,-3.27 205,-3.27 205,-1.47 242.37,0 288.38,0 334.38,0 371.75,-1.47 371.75,-3.27 371.75,-3.27 371.75,-32.73 371.75,-32.73"/>
<path fill="none" stroke="black" d="M371.75,-32.73C371.75,-30.92 334.38,-29.45 288.38,-29.45 242.37,-29.45 205,-30.92 205,-32.73"/>
<text xml:space="preserve" text-anchor="middle" x="288.38" y="-12.95" font-family="Times,serif" font-size="14.00">ShadowClientFeatureHome</text>
</g>
<!-- ShadowClientNativeAudioDecoding -->
<g id="node2" class="node">
<title>ShadowClientNativeAudioDecoding</title>
<path fill="#ffb90f" stroke="black" d="M328.75,-104.73C328.75,-106.53 280.62,-108 221.38,-108 162.13,-108 114,-106.53 114,-104.73 114,-104.73 114,-75.27 114,-75.27 114,-73.47 162.13,-72 221.38,-72 280.62,-72 328.75,-73.47 328.75,-75.27 328.75,-75.27 328.75,-104.73 328.75,-104.73"/>
<path fill="none" stroke="black" d="M328.75,-104.73C328.75,-102.92 280.62,-101.45 221.38,-101.45 162.13,-101.45 114,-102.92 114,-104.73"/>
<text xml:space="preserve" text-anchor="middle" x="221.38" y="-84.95" font-family="Times,serif" font-size="14.00">ShadowClientNativeAudioDecoding</text>
</g>
<!-- ShadowClientNativeAudioDecoding&#45;&gt;ShadowClientFeatureHome -->
<g id="edge1" class="edge">
<title>ShadowClientNativeAudioDecoding&#45;&gt;ShadowClientFeatureHome</title>
<path fill="none" stroke="black" d="M237.94,-71.7C245.81,-63.47 255.37,-53.48 264.04,-44.42"/>
<polygon fill="black" stroke="black" points="266.57,-46.84 270.96,-37.2 261.51,-42 266.57,-46.84"/>
</g>
<!-- ShadowClientiOSApp -->
<g id="node3" class="node">
<title>ShadowClientiOSApp</title>
<polygon fill="deepskyblue" stroke="black" stroke-width="1.5" points="136.75,-180 4,-180 0,-176 0,-144 132.75,-144 136.75,-148 136.75,-180"/>
<polyline fill="none" stroke="black" stroke-width="1.5" points="132.75,-176 0,-176"/>
<polyline fill="none" stroke="black" stroke-width="1.5" points="132.75,-176 132.75,-144"/>
<polyline fill="none" stroke="black" stroke-width="1.5" points="132.75,-176 136.75,-180"/>
<text xml:space="preserve" text-anchor="middle" x="68.38" y="-156.95" font-family="Times,serif" font-size="14.00">ShadowClientiOSApp</text>
</g>
<!-- ShadowClientiOSApp&#45;&gt;ShadowClientFeatureHome -->
<g id="edge2" class="edge">
<title>ShadowClientiOSApp&#45;&gt;ShadowClientFeatureHome</title>
<path fill="none" stroke="black" d="M71.06,-143.32C75.03,-123.21 84.41,-90.73 105.38,-72 129.75,-50.21 162.59,-37.35 193.71,-29.77"/>
<polygon fill="black" stroke="black" points="194.18,-33.25 203.16,-27.63 192.63,-26.42 194.18,-33.25"/>
</g>
<!-- ShadowClientiOSApp&#45;&gt;ShadowClientNativeAudioDecoding -->
<g id="edge3" class="edge">
<title>ShadowClientiOSApp&#45;&gt;ShadowClientNativeAudioDecoding</title>
<path fill="none" stroke="black" d="M106.98,-143.34C126.98,-134.19 151.59,-122.93 172.86,-113.2"/>
<polygon fill="black" stroke="black" points="174.3,-116.39 181.93,-109.05 171.38,-110.02 174.3,-116.39"/>
</g>
<!-- ShadowClientmacOSApp -->
<g id="node4" class="node">
<title>ShadowClientmacOSApp</title>
<polygon fill="deepskyblue" stroke="black" stroke-width="1.5" points="311.5,-180 159.25,-180 155.25,-176 155.25,-144 307.5,-144 311.5,-148 311.5,-180"/>
<polyline fill="none" stroke="black" stroke-width="1.5" points="307.5,-176 155.25,-176"/>
<polyline fill="none" stroke="black" stroke-width="1.5" points="307.5,-176 307.5,-144"/>
<polyline fill="none" stroke="black" stroke-width="1.5" points="307.5,-176 311.5,-180"/>
<text xml:space="preserve" text-anchor="middle" x="233.38" y="-156.95" font-family="Times,serif" font-size="14.00">ShadowClientmacOSApp</text>
</g>
<!-- ShadowClientmacOSApp&#45;&gt;ShadowClientFeatureHome -->
<g id="edge4" class="edge">
<title>ShadowClientmacOSApp&#45;&gt;ShadowClientFeatureHome</title>
<path fill="none" stroke="black" d="M294.47,-143.32C311.29,-135.34 327.58,-123.98 337.38,-108 345.73,-94.36 343.21,-86.9 337.38,-72 333.38,-61.8 326.41,-52.39 318.95,-44.42"/>
<polygon fill="black" stroke="black" points="321.44,-41.96 311.86,-37.42 316.52,-46.94 321.44,-41.96"/>
</g>
<!-- ShadowClientmacOSApp&#45;&gt;ShadowClientNativeAudioDecoding -->
<g id="edge5" class="edge">
<title>ShadowClientmacOSApp&#45;&gt;ShadowClientNativeAudioDecoding</title>
<path fill="none" stroke="black" d="M230.35,-143.34C229.12,-136.15 227.66,-127.66 226.28,-119.64"/>
<polygon fill="black" stroke="black" points="229.76,-119.17 224.62,-109.91 222.86,-120.36 229.76,-119.17"/>
</g>
<!-- ShadowClienttvOSApp -->
<g id="node5" class="node">
<title>ShadowClienttvOSApp</title>
<polygon fill="deepskyblue" stroke="black" stroke-width="1.5" points="473.12,-180 333.62,-180 329.62,-176 329.62,-144 469.12,-144 473.12,-148 473.12,-180"/>
<polyline fill="none" stroke="black" stroke-width="1.5" points="469.12,-176 329.62,-176"/>
<polyline fill="none" stroke="black" stroke-width="1.5" points="469.12,-176 469.12,-144"/>
<polyline fill="none" stroke="black" stroke-width="1.5" points="469.12,-176 473.12,-180"/>
<text xml:space="preserve" text-anchor="middle" x="401.38" y="-156.95" font-family="Times,serif" font-size="14.00">ShadowClienttvOSApp</text>
</g>
<!-- ShadowClienttvOSApp&#45;&gt;ShadowClientFeatureHome -->
<g id="edge6" class="edge">
<title>ShadowClienttvOSApp&#45;&gt;ShadowClientFeatureHome</title>
<path fill="none" stroke="black" d="M394.6,-143.34C386.78,-124.41 372.62,-94.1 354.38,-72 345.69,-61.48 334.63,-51.62 324.06,-43.33"/>
<polygon fill="black" stroke="black" points="326.26,-40.61 316.17,-37.38 322.04,-46.19 326.26,-40.61"/>
</g>
<!-- ShadowClienttvOSApp&#45;&gt;ShadowClientNativeAudioDecoding -->
<g id="edge7" class="edge">
<title>ShadowClienttvOSApp&#45;&gt;ShadowClientNativeAudioDecoding</title>
<path fill="none" stroke="black" d="M355.95,-143.34C331.9,-133.98 302.15,-122.41 276.75,-112.53"/>
<polygon fill="black" stroke="black" points="278.16,-109.33 267.57,-108.96 275.62,-115.85 278.16,-109.33"/>
</g>
</g>
</svg>
